<svg id="logo_heal" xmlns="http://www.w3.org/2000/svg" xmlns:xlink="http://www.w3.org/1999/xlink" width="118.515" height="21.421" viewBox="0 0 118.515 21.421">
  <defs>
    <clipPath id="clip-path">
      <rect id="사각형_17" data-name="사각형 17" width="118.515" height="21.421" transform="translate(0 0)" fill="none"/>
    </clipPath>
  </defs>
  <g id="그룹_11" data-name="그룹 11" transform="translate(0 0)" clip-path="url(#clip-path)">
    <path id="패스_14" data-name="패스 14" d="M392.632,13.551s1-1.443.623-6.254a9.706,9.706,0,0,0-3.061-6.123c-4.666-3.328-9.134,1.218-9.464,3.854s.119,6.169,5.479,8.113c0,0-6.071-2.51-5.178-7.565s9.451-4.971,10.914.759a20.118,20.118,0,0,1,.687,7.217" transform="translate(-281.612 0)" fill="#fff"/>
    <path id="패스_15" data-name="패스 15" d="M391.366,53.747a37.7,37.7,0,0,1-7.647,5.464c-3.121,1.687-3.3-.735-1.921-2.354,1.451-1.7,4.958-3.68,5.8-2.761,0,0,.283-1.224-2.462-1.323s-5.754,3.464-5.22,5.8,3.783,1.877,8.424-1.762a41.731,41.731,0,0,0,3.173-2.733l-.143-.326" transform="translate(-281.022 -39.22)" fill="#fff"/>
    <path id="패스_16" data-name="패스 16" d="M417.006,14.853c-.933-2.673-3.724-.24-6.693,2.629-1.759,1.7-5.918,4.735-5.918,4.735l-.683.181s2.427-1.989,5.307-4.4,3.352-6.376,3.632-7.334c.7-2.39-.329-5.383-1.982-4.577-.689.336-.253,1.487-.267,1.511,0,0-.829-1.375-.043-2.3,1.61-1.891,4.087.849,3.946,3.273a15.535,15.535,0,0,1-2.683,6.94,22.577,22.577,0,0,1,2.526-2.012c2.349-1.64,2.953-.2,2.953-.2a2.418,2.418,0,0,1-.1,1.556" transform="translate(-298.675 -3.468)" fill="#fff"/>
    <path id="패스_17" data-name="패스 17" d="M421.192,52.262a11.653,11.653,0,0,0-1.066,1.049c-.613.675-3.668,5.287-1.241,6.3,1.884.784,4.939-.851,5.443-1.563,0,0-2.369,1.839-3.781.647-1.153-.974-.592-4.7.465-6.08Z" transform="translate(-309.217 -38.842)" fill="#fff"/>
    <path id="패스_18" data-name="패스 18" d="M62.622,52.271H68.3v-.286l-1.013-.35a1.455,1.455,0,0,1-.71-.493l-3.079-4.5,2.3-2.855A4.612,4.612,0,0,1,67.94,42.2v-.266H64.206v.242a1.1,1.1,0,0,1,.74.571,1.076,1.076,0,0,1-.094,1.14l-1.684,2.271-1.63-2.373a1.035,1.035,0,0,1-.059-1.08,1.057,1.057,0,0,1,.692-.528v-.244H56.8v.228a2.4,2.4,0,0,1,1.756,1.049l2.831,4.218L59.158,50.25a4.9,4.9,0,0,1-2.474,1.76v.261h4.064v-.278a1.239,1.239,0,0,1-.66-.7,1.352,1.352,0,0,1,.117-1.3l1.523-2.058,1.459,2.138a1.325,1.325,0,0,1,.073,1.268,1.187,1.187,0,0,1-.638.65Z" transform="translate(-41.936 -31.169)" fill="#fff"/>
    <path id="패스_19" data-name="패스 19" d="M120,40.7a5.207,5.207,0,0,0-5.388,5.485,5.389,5.389,0,1,0,10.775,0A5.207,5.207,0,0,0,120,40.7m0,10.358c-1.882,0-2.836-1.631-2.836-4.849,0-3.25.954-4.9,2.836-4.9,1.294,0,2.836.85,2.836,4.9,0,4.007-1.543,4.849-2.836,4.849" transform="translate(-84.793 -30.247)" fill="#fff"/>
    <path id="패스_20" data-name="패스 20" d="M179.1,35.918h5.282v-.271a2.314,2.314,0,0,1-1.435-2.111c-.009-.75-.013-1.509-.013-2.12V29.055c0-2.549-.965-3.788-2.951-3.788a5.144,5.144,0,0,0-3.814,1.92l-.43.471-.008-4.442.09-3.047-.4-.233L171.8,20.97v.314a2.186,2.186,0,0,1,1.69,2.112v8.021c0,.6,0,1.376-.013,2.142a2.217,2.217,0,0,1-1.543,2.1v.259h5.273v-.273a2.264,2.264,0,0,1-1.386-2.057c-.009-.777-.013-1.562-.013-2.173V28.092l.081-.073a4.345,4.345,0,0,1,2.878-1.351c1.535,0,1.849,1.043,1.849,2.609v2.139c0,.607,0,1.36-.012,2.106a2.3,2.3,0,0,1-1.5,2.138Z" transform="translate(-127.102 -14.816)" fill="#fff"/>
    <path id="패스_21" data-name="패스 21" d="M242.146,40.7a5.311,5.311,0,0,0-5.43,5.545c0,3.347,2.011,5.426,5.25,5.426a4.745,4.745,0,0,0,4.372-2.33l-.217-.184a4.434,4.434,0,0,1-3.192,1.205c-2.222,0-3.614-1.535-3.724-4.1L239.193,46h7.192a4.717,4.717,0,0,0,.093-1,4.047,4.047,0,0,0-4.332-4.305m.506,4.717H239.2l.018-.26c.247-3.574,2.167-3.852,2.75-3.852a2.41,2.41,0,0,1,2.326,2.583c0,1.072-.491,1.529-1.643,1.529" transform="translate(-175.128 -30.247)" fill="#fff"/>
    <path id="패스_22" data-name="패스 22" d="M295.331,41.2c.121,0,.224,0,.3.008,1.694.089,2.266.85,2.266,3.014v.833l-.186.047c-.783.2-1.609.425-2.209.614-3.34,1.048-4.011,2.055-4.011,3.34a2.541,2.541,0,0,0,2.849,2.615c1.379,0,2.073-.533,3.224-1.665l.309-.3.105.418a1.944,1.944,0,0,0,2.072,1.508,2.164,2.164,0,0,0,2.09-1.133l-.2-.163a1.115,1.115,0,0,1-.839.4c-.429,0-.94-.218-.94-1.257V44.538c0-2.763-1.019-3.84-3.636-3.84a7.478,7.478,0,0,0-2.616.426,12.3,12.3,0,0,0-1.3.512l.1.228c.083-.036.2-.088.365-.164a7.886,7.886,0,0,1,1.443-.441,5.1,5.1,0,0,1,.81-.061m.289,9.307a1.745,1.745,0,0,1-1.891-1.908c0-1.116.717-1.936,2.193-2.507a15.906,15.906,0,0,1,1.661-.547l.315-.089v4.011l-.105.073a3.683,3.683,0,0,1-2.173.967" transform="translate(-215.652 -30.247)" fill="#fff"/>
    <path id="패스_23" data-name="패스 23" d="M345.858,35.889h5.578V35.4a2.2,2.2,0,0,1-1.616-2.077q-.014-.969-.015-1.939V22.955l.085-2.834-.4-.227L345.8,20.939v.315a2.186,2.186,0,0,1,1.69,2.112v8.021q0,.97-.015,1.939a2.2,2.2,0,0,1-1.616,2.077Z" transform="translate(-255.829 -14.786)" fill="#fff"/>
    <path id="패스_24" data-name="패스 24" d="M0,42.024H11.1l.135-3.256h-.376c-.419,1.508-2.434,2.612-4.067,2.612H4.311l0-.239c-.039-1.857-.039-3.756-.039-5.593V35.3H5.5A2.812,2.812,0,0,1,8.17,37.147h.377V32.8H8.163a2.873,2.873,0,0,1-2.708,1.865H4.268v-.244c0-1.681,0-3.467.04-5.207l0-.239H6.356c1.622,0,3.624,1.1,4.042,2.6h.391l-.135-3.256H0V28.7A2.53,2.53,0,0,1,1.885,31.13c.011,1.2.012,2.375.012,3.58v.928c0,1.21,0,2.4-.012,3.581A2.521,2.521,0,0,1,0,41.638Z" transform="translate(0 -21.051)" fill="#fff"/>
  </g>
</svg>
